# File created by Blade
# Date/Time:  Wed Jan 21 18:02:19 2015
# Frame Rate: 120.000 fps
#------------------------------------------------------
:FULLY-SPECIFIED
:DEGREES
1156
root 21.358643 35.439694 -22.786072 -176.050005 2.432534 -177.390771
Spine -9.612239 2.209210 -3.803786
Head 4.529024 -6.661857 3.716700
LeftShoulder -5.667398 -18.389460 -4.691392
LeftArm -8.946240 29.677699 -74.299783
LeftForeArm -6.225974 -0.000000 7.343026
LeftHand -2.441550 0.000000 -13.761032
LeftHandThumb1 -26.253704 0.000000 33.147579
RightShoulder -9.915738 -15.013738 12.473218
RightArm 15.419841 -9.272364 65.726431
RightForeArm -17.057559 -0.000000 24.601255
RightHand -1.282443 0.000000 2.743815
RightHandThumb1 -24.326973 -0.000000 -32.862282
LeftUpLeg -3.855535 20.378573 7.605783
LeftLeg 2.424870 -0.000000 -0.000000
LeftFoot -16.952100 34.081825 -6.051202
LeftToeBase 22.031285 -0.000000 -0.000000
RightUpLeg -0.258964 -2.384138 1.089382
RightLeg 0.399240 -0.000000 -0.000000
RightFoot -20.204010 -21.625702 13.798851
RightToeBase 24.680449 -0.000000 -0.000000
1157
root 21.546199 35.433807 -22.758044 -175.998718 1.986554 -177.142931
Spine -9.548355 2.073814 -3.488942
Head 4.271291 -6.423142 3.524973
LeftShoulder -5.784821 -18.638925 -4.892033
LeftArm -8.732725 28.717766 -73.272404
LeftForeArm -6.085179 0.000000 7.948514
LeftHand -2.340113 -0.000000 -14.236063
LeftHandThumb1 -26.253704 0.000000 33.147579
RightShoulder -9.608853 -14.803519 12.176948
RightArm 15.554774 -9.470223 65.619308
RightForeArm -17.114394 -0.000000 25.415479
RightHand -1.149790 -0.000000 2.554501
RightHandThumb1 -24.326973 -0.000000 -32.862282
LeftUpLeg -4.451796 19.772215 8.109925
LeftLeg 3.262804 -0.000000 -0.000000
LeftFoot -17.205997 34.167684 -5.835140
LeftToeBase 21.162840 -0.000000 -0.000000
RightUpLeg -0.032752 -2.624833 1.648584
RightLeg -0.076618 -0.000000 0.000000
RightFoot -20.029679 -21.667353 13.728199
RightToeBase 24.621034 -0.000000 -0.000000
1158
root 21.721909 35.428414 -22.735132 -176.046688 1.618186 -176.957255
Spine -9.379024 2.035711 -3.222241
Head 4.027234 -6.305258 3.287168
LeftShoulder -5.872202 -18.789105 -5.080221
LeftArm -8.355148 27.814829 -72.229403
LeftForeArm -5.777535 -0.000000 8.551400
LeftHand -2.205919 -0.000000 -14.617801
LeftHandThumb1 -26.253704 0.000000 33.147579
RightShoulder -9.345000 -14.704819 11.829557
RightArm 15.912927 -9.524092 65.557132
RightForeArm -17.330683 -0.000000 26.006955
RightHand -0.721664 0.000000 2.579062
RightHandThumb1 -24.326973 -0.000000 -32.862282
LeftUpLeg -4.948008 19.269293 8.553445
LeftLeg 4.155036 -0.000000 -0.000000
LeftFoot -17.560371 34.245259 -5.770396
LeftToeBase 20.218705 -0.000000 -0.000000
RightUpLeg 0.263073 -2.714625 2.116666
RightLeg -0.507821 -0.000000 0.000000
RightFoot -19.904342 -21.782668 13.625761
RightToeBase 24.571111 -0.000000 -0.000000
1159
root 21.893013 35.421949 -22.705977 -176.038471 1.324811 -176.768776
Spine -9.266093 2.058407 -2.973364
Head 3.770152 -6.138803 3.093526
LeftShoulder -5.971720 -18.996825 -5.157771
LeftArm -8.010458 26.945612 -71.295469
LeftForeArm -5.454526 -0.000000 9.158105
LeftHand -2.115077 -0.000000 -15.034097
LeftHandThumb1 -26.253704 0.000000 33.147579
RightShoulder -9.155538 -14.689370 11.510020
RightArm 16.402636 -9.690311 65.373662
RightForeArm -17.654697 -0.000000 26.639093
RightHand -0.508668 0.000000 2.659381
RightHandThumb1 -24.326973 -0.000000 -32.862282
LeftUpLeg -5.535103 18.822920 8.974096
LeftLeg 5.149076 -0.000000 -0.000000
LeftFoot -17.948597 34.313647 -5.655215
LeftToeBase 19.123753 -0.000000 -0.000000
RightUpLeg 0.437034 -2.898245 2.576914
RightLeg -0.865027 -0.000000 0.000000
RightFoot -19.756027 -21.742658 13.495408
RightToeBase 24.568350 -0.000000 -0.000000
1160
root 22.040345 35.414561 -22.680220 -176.058943 0.899322 -176.666342
Spine -9.113822 1.927883 -2.745515
Head 3.504534 -5.882914 2.862121
LeftShoulder -6.105197 -19.235285 -5.204306
LeftArm -7.678226 26.203397 -70.463090
LeftForeArm -4.992417 -0.000000 9.775319
LeftHand -2.022872 -0.000000 -14.992394
LeftHandThumb1 -26.253704 0.000000 33.147579
RightShoulder -8.930833 -14.534776 11.055751
RightArm 16.735182 -9.778111 65.263533
RightForeArm -18.050927 -0.000000 27.148628
RightHand -0.037704 -0.000000 2.929602
RightHandThumb1 -24.326973 -0.000000 -32.862282
LeftUpLeg -6.137457 18.115382 9.267586
LeftLeg 6.159011 -0.000000 -0.000000
LeftFoot -18.459636 34.511246 -5.726589
LeftToeBase 17.919196 -0.000000 -0.000000
RightUpLeg 0.705946 -2.505798 2.929040
RightLeg -1.318026 -0.000000 0.000000
RightFoot -19.774195 -22.412484 13.538885
RightToeBase 24.480007 -0.000000 -0.000000
1161
root 22.189771 35.408748 -22.650772 -176.103751 0.452164 -176.551784
Spine -8.931717 1.779386 -2.526100
Head 3.266737 -5.799536 2.629230
LeftShoulder -6.227940 -19.427533 -5.171850
LeftArm -7.225068 25.440390 -69.623972
LeftForeArm -4.283923 -0.000000 10.293628
LeftHand -1.670832 -0.000000 -15.374615
LeftHandThumb1 -26.253704 0.000000 33.147579
RightShoulder -8.763523 -14.381667 10.597864
RightArm 17.168162 -9.852816 65.144602
RightForeArm -18.554504 0.000000 27.492258
RightHand 0.598294 -0.000000 3.314142
RightHandThumb1 -24.326973 -0.000000 -32.862282
LeftUpLeg -6.737779 17.314487 9.585516
LeftLeg 7.219695 -0.000000 -0.000000
LeftFoot -19.016876 34.690416 -5.805102
LeftToeBase 16.921065 -0.000000 -0.000000
RightUpLeg 0.953189 -2.337721 3.298385
RightLeg -1.711784 -0.000000 0.000000
RightFoot -19.749791 -22.880051 13.578613
RightToeBase 24.491715 -0.000000 -0.000000
1162
root 22.336498 35.403468 -22.621427 -176.125662 0.052709 -176.436555
Spine -8.776715 1.653919 -2.333835
Head 2.971960 -5.640674 2.498958
LeftShoulder -6.341810 -19.648386 -5.070857
LeftArm -6.823032 24.590444 -68.775239
LeftForeArm -3.668890 0.000000 10.894039
LeftHand -1.367347 -0.000000 -15.822702
LeftHandThumb1 -26.253704 0.000000 33.147579
RightShoulder -8.595410 -14.211230 10.143043
RightArm 17.593879 -9.850982 65.013450
RightForeArm -19.182885 -0.000000 27.707307
RightHand 1.282862 -0.000000 3.820998
RightHandThumb1 -24.326973 -0.000000 -32.862282
LeftUpLeg -7.418834 16.716528 9.874891
LeftLeg 8.421646 -0.000000 -0.000000
LeftFoot -19.762817 34.685648 -6.089130
LeftToeBase 16.350657 -0.000000 -0.000000
RightUpLeg 1.133539 -2.263819 3.653914
RightLeg -2.032360 -0.000000 0.000000
RightFoot -19.698977 -23.159867 13.572395
RightToeBase 24.422278 -0.000000 -0.000000
1163
root 22.472578 35.401544 -22.598200 -176.122170 -0.348456 -176.378957
Spine -8.693876 1.541168 -2.199460
Head 2.803934 -5.514822 2.327946
LeftShoulder -6.496835 -19.734483 -4.958140
LeftArm -6.269218 24.101534 -67.897539
LeftForeArm -3.288366 -0.000000 11.509473
LeftHand -1.130387 -0.000000 -15.640173
LeftHandThumb1 -26.253704 0.000000 33.147579
RightShoulder -8.528330 -14.132485 9.726368
RightArm 18.128109 -9.755187 64.813142
RightForeArm -20.010527 -0.000000 27.822053
RightHand 1.801163 -0.000000 4.617356
RightHandThumb1 -24.326973 -0.000000 -32.862282
LeftUpLeg -8.084608 16.063048 10.076202
LeftLeg 9.554799 -0.000000 -0.000000
LeftFoot -20.704535 34.704611 -6.726656
LeftToeBase 16.135242 -0.000000 -0.000000
RightUpLeg 1.288017 -2.216154 3.947308
RightLeg -2.341349 -0.000000 0.000000
RightFoot -19.679208 -23.473475 13.645336
RightToeBase 24.336843 -0.000000 -0.000000
1164
root 22.602136 35.399795 -22.583396 -176.334406 -0.862645 -176.351561
Spine -8.328272 1.267682 -2.080198
Head 2.564549 -5.319982 2.235988
LeftShoulder -6.610864 -19.904869 -4.854088
LeftArm -5.675559 23.709924 -66.953764
LeftForeArm -2.861627 -0.000000 11.911089
LeftHand -0.932804 0.000000 -15.911889
LeftHandThumb1 -26.253704 0.000000 33.147579
RightShoulder -8.302659 -13.920483 9.281511
RightArm 18.519571 -9.491267 64.630804
RightForeArm -20.809869 -0.000000 27.795618
RightHand 2.397386 -0.000000 5.412676
RightHandThumb1 -24.326973 -0.000000 -32.862282
LeftUpLeg -8.531599 15.226433 10.290245
LeftLeg 10.646436 -0.000000 -0.000000
LeftFoot -21.738022 34.707346 -7.456487
LeftToeBase 16.159224 -0.000000 -0.000000
RightUpLeg 1.668670 -2.499551 4.195379
RightLeg -2.646641 -0.000000 0.000000
RightFoot -19.617681 -23.622807 13.592116
RightToeBase 24.292913 -0.000000 -0.000000
1165
root 22.719648 35.403476 -22.575621 -176.576590 -1.306581 -176.375597
Spine -7.957760 1.098880 -2.041245
Head 2.349172 -5.111522 2.184898
LeftShoulder -6.655181 -20.092816 -4.771885
LeftArm -5.032175 23.363448 -65.929700
LeftForeArm -2.441556 -0.000000 12.140453
LeftHand -0.695813 -0.000000 -16.329131
LeftHandThumb1 -26.253704 0.000000 33.147579
RightShoulder -8.132637 -13.698928 8.921138
RightArm 18.908022 -9.215711 64.306982
RightForeArm -21.563521 -0.000000 27.606615
RightHand 2.982551 -0.000000 6.238720
RightHandThumb1 -24.326973 -0.000000 -32.862282
LeftUpLeg -8.886875 14.562030 10.409362
LeftLeg 11.672151 -0.000000 -0.000000
LeftFoot -22.561739 34.557518 -7.922418
LeftToeBase 16.184434 -0.000000 -0.000000
RightUpLeg 2.052342 -2.849228 4.355736
RightLeg -2.893748 -0.000000 0.000000
RightFoot -19.538540 -23.589441 13.537161
RightToeBase 24.263466 -0.000000 -0.000000
1166
root 22.828646 35.406890 -22.554376 -176.646025 -1.412130 -176.435656
Spine -7.816267 1.271358 -2.087622
Head 2.244447 -4.992707 2.137697
LeftShoulder -6.600560 -20.366763 -4.646724
LeftArm -4.443385 22.739038 -64.921085
LeftForeArm -1.734556 0.000000 12.081082
LeftHand -0.372080 -0.000000 -16.684098
LeftHandThumb1 -26.253704 0.000000 33.147579
RightShoulder -7.988129 -13.442541 8.589246
RightArm 19.200434 -8.888621 63.951298
RightForeArm -22.367812 0.000000 27.395721
RightHand 3.196521 -0.000000 7.149821
RightHandThumb1 -24.326973 -0.000000 -32.862282
LeftUpLeg -9.324846 14.273377 10.419467
LeftLeg 12.665942 -0.000000 -0.000000
LeftFoot -23.299320 34.352573 -8.329568
LeftToeBase 16.217923 -0.000000 -0.000000
RightUpLeg 2.232913 -2.604213 4.474360
RightLeg -3.159270 -0.000000 0.000000
RightFoot -19.514871 -23.991399 13.282512
RightToeBase 24.660941 -0.000000 -0.000000
1167
root 22.933382 35.414498 -22.536382 -176.714224 -1.615704 -176.522421
Spine -7.705925 1.345438 -2.164321
Head 2.196832 -4.973701 2.151851
LeftShoulder -6.510864 -20.694542 -4.522942
LeftArm -3.911061 22.635985 -63.834421
LeftForeArm -1.462894 -0.000000 11.996492
LeftHand -0.272628 0.000000 -16.905096
LeftHandThumb1 -26.253704 0.000000 33.147579
RightShoulder -7.862469 -13.226057 8.303717
RightArm 19.525745 -8.576876 63.469887
RightForeArm -23.092027 -0.000000 27.017386
RightHand 3.438969 -0.000000 8.073360
RightHandThumb1 -24.326973 -0.000000 -32.862282
LeftUpLeg -9.749127 13.988314 10.378934
LeftLeg 13.574778 -0.000000 -0.000000
LeftFoot -23.971225 33.939360 -8.845296
LeftToeBase 16.332490 -0.000000 -0.000000
RightUpLeg 2.371231 -2.646046 4.568136
RightLeg -3.324673 -0.000000 0.000000
RightFoot -19.462075 -24.039880 13.481562
RightToeBase 24.221429 -0.000000 -0.000000
1168
root 23.027974 35.426789 -22.523732 -176.743968 -1.762563 -176.675632
Spine -7.689634 1.514989 -2.346918
Head 2.249429 -5.014529 2.165532
LeftShoulder -6.362392 -20.926327 -4.404777
LeftArm -3.250358 22.495879 -62.655377
LeftForeArm -1.148691 -0.000000 11.749860
LeftHand -0.156785 -0.000000 -17.244562
LeftHandThumb1 -26.253704 0.000000 33.147579
RightShoulder -7.816070 -13.164041 8.127169
RightArm 19.955536 -8.228179 62.822066
RightForeArm -23.873349 -0.000000 26.547056
RightHand 3.457462 0.000000 8.867679
RightHandThumb1 -24.326973 -0.000000 -32.862282
LeftUpLeg -10.097697 13.768746 10.235055
LeftLeg 14.301381 -0.000000 -0.000000
LeftFoot -24.571232 33.506137 -9.387786
LeftToeBase 16.404634 -0.000000 -0.000000
RightUpLeg 2.459907 -2.735925 4.575928
RightLeg -3.462978 -0.000000 0.000000
RightFoot -19.414634 -24.074225 13.478228
RightToeBase 24.123052 -0.000000 -0.000000
